<svg width="20" height="20" viewBox="0 0 20 20" fill="none" xmlns="http://www.w3.org/2000/svg">
<path d="M13.3336 17.5V15.8333C13.3336 14.9493 12.9824 14.1014 12.3573 13.4763C11.7322 12.8512 10.8844 12.5 10.0003 12.5H5.00032C4.11627 12.5 3.26842 12.8512 2.6433 13.4763C2.01818 14.1014 1.66699 14.9493 1.66699 15.8333V17.5" stroke="white" stroke-width="1.66667" stroke-linecap="round" stroke-linejoin="round"/>
<path d="M7.50032 9.16667C9.34127 9.16667 10.8336 7.67428 10.8336 5.83333C10.8336 3.99238 9.34127 2.5 7.50032 2.5C5.65937 2.5 4.16699 3.99238 4.16699 5.83333C4.16699 7.67428 5.65937 9.16667 7.50032 9.16667Z" stroke="white" stroke-width="1.66667" stroke-linecap="round" stroke-linejoin="round"/>
<path d="M18.333 17.5V15.8333C18.3325 15.0948 18.0867 14.3773 17.6342 13.7936C17.1817 13.2099 16.5481 12.793 15.833 12.6083" stroke="white" stroke-width="1.66667" stroke-linecap="round" stroke-linejoin="round"/>
<path d="M13.333 2.60828C14.05 2.79187 14.6856 3.20887 15.1394 3.79354C15.5932 4.37822 15.8396 5.09731 15.8396 5.83745C15.8396 6.57759 15.5932 7.29668 15.1394 7.88136C14.6856 8.46603 14.05 8.88303 13.333 9.06662" stroke="white" stroke-width="1.66667" stroke-linecap="round" stroke-linejoin="round"/>
</svg>
